<svg xmlns="http://www.w3.org/2000/svg" viewBox="0 0 680 530" fill="none">
  <defs><linearGradient id="bg" x1="68" y1="38" x2="632" y2="495" gradientUnits="userSpaceOnUse"><stop stop-color="#6557A9"/><stop offset="1" stop-color="#2F2B65"/></linearGradient><filter id="s" x="-30%" y="-30%" width="160%" height="160%"><feDropShadow dx="0" dy="18" stdDeviation="17" flood-color="#221B56" flood-opacity=".34"/></filter></defs>
  <rect x="20" y="20" width="640" height="480" rx="42" fill="url(#bg)"/>
  <circle cx="354" cy="263" r="184" stroke="#A99FDC" stroke-width="1.5" opacity=".35"/><circle cx="354" cy="263" r="132" stroke="#A99FDC" stroke-width="1.5" opacity=".35"/>
  <path d="M82 94h92M523 98h83M91 430h115M493 435h103" stroke="#BEB5EA" stroke-width="2" stroke-linecap="round" opacity=".45"/>
  <g filter="url(#s)"><circle cx="315" cy="256" r="147" fill="#FBF8F2"/><circle cx="315" cy="256" r="127" stroke="#E5E0F3" stroke-width="2"/><circle cx="315" cy="256" r="113" stroke="#DDD6F2" stroke-width="2" stroke-dasharray="2 15" stroke-linecap="round"/><path d="M315 170v86l52 42" stroke="#5E519D" stroke-width="12" stroke-linecap="round" stroke-linejoin="round"/><circle cx="315" cy="256" r="10" fill="#EDAF8B"/><text x="298" y="165" fill="#7B71A9" font-family="Arial,sans-serif" font-size="15" font-weight="700">12</text><text x="419" y="262" fill="#7B71A9" font-family="Arial,sans-serif" font-size="15" font-weight="700">3</text><text x="311" y="373" fill="#7B71A9" font-family="Arial,sans-serif" font-size="15" font-weight="700">6</text><text x="197" y="262" fill="#7B71A9" font-family="Arial,sans-serif" font-size="15" font-weight="700">9</text></g>
  <g filter="url(#s)" transform="rotate(7 498 325)"><rect x="423" y="248" width="160" height="161" rx="19" fill="#FFFDF7"/><path d="M423 267c0-10 8-19 19-19h122c10 0 19 9 19 19v30H423v-30Z" fill="#EAAE91"/><path d="M457 236v25M548 236v25" stroke="#F9E4D9" stroke-width="11" stroke-linecap="round"/><text x="448" y="333" fill="#6B5FA3" font-family="Arial,sans-serif" font-size="15" font-weight="700">DZIŚ</text><text x="447" y="379" fill="#352C6C" font-family="Arial,sans-serif" font-size="44" font-weight="700">24</text></g>
  <g filter="url(#s)"><rect x="76" y="73" width="153" height="88" rx="18" fill="#E2DCF7"/><text x="95" y="109" fill="#5B5093" font-family="Arial,sans-serif" font-size="13" font-weight="700" letter-spacing="1">ODLICZANIE</text><text x="95" y="139" fill="#302C64" font-family="Arial,sans-serif" font-size="23" font-weight="700">D−7 dni</text></g>
  <g filter="url(#s)"><rect x="71" y="386" width="178" height="71" rx="17" fill="#E7CDB5"/><circle cx="104" cy="421" r="17" fill="#FFF7EC"/><path d="M104 410v12l8 5" stroke="#826684" stroke-width="3" stroke-linecap="round"/><text x="130" y="417" fill="#4F426C" font-family="Arial,sans-serif" font-size="12" font-weight="700">CZAS PRACY</text><text x="130" y="438" fill="#3C315A" font-family="Arial,sans-serif" font-size="19" font-weight="700">8 h 30 min</text></g>
  <circle cx="557" cy="148" r="15" fill="#EAAE91"/><circle cx="567" cy="188" r="5" fill="#C5B8E8"/><circle cx="108" cy="270" r="7" fill="#EAAE91"/>
</svg>
